<?xml version="1.0" standalone="no"?>
<!DOCTYPE svg PUBLIC "-//W3C//DTD SVG 20010904//EN"
 "http://www.w3.org/TR/2001/REC-SVG-20010904/DTD/svg10.dtd">
<svg version="1.0" xmlns="http://www.w3.org/2000/svg"
 width="512.000000pt" height="512.000000pt" viewBox="0 0 512.000000 512.000000"
 preserveAspectRatio="xMidYMid meet">

<g transform="translate(0.000000,512.000000) scale(0.100000,-0.100000)"
fill="#000000" stroke="none">
<path d="M3445 4918 c-426 -53 -839 -448 -914 -872 -12 -66 -14 -181 -4 -239
l6 -38 66 6 c160 16 312 68 438 151 32 21 99 79 150 127 195 188 299 398 322
655 6 59 7 132 3 162 l-7 55 -60 -7z"/>
<path d="M1668 3830 c-435 -39 -794 -285 -993 -679 -220 -439 -204 -1123 42
-1750 166 -425 443 -850 674 -1034 152 -122 273 -170 424 -170 115 0 185 15
315 68 238 96 356 125 516 125 147 0 199 -11 387 -81 352 -131 476 -144 646
-63 314 147 684 615 877 1110 25 64 44 117 42 118 -2 1 -30 17 -63 36 -336
185 -537 456 -585 789 -17 114 -8 304 20 406 28 107 96 244 168 341 61 82 208
228 286 285 25 18 46 36 46 41 0 4 -35 45 -77 89 -242 254 -532 372 -908 372
-231 0 -304 -17 -680 -154 -67 -24 -112 -33 -175 -37 -100 -5 -123 1 -335 86
-173 69 -243 88 -375 102 -105 11 -126 11 -252 0z"/>
</g>
</svg>
