<?xml version="1.0" standalone="no"?>
<!DOCTYPE svg PUBLIC "-//W3C//DTD SVG 20010904//EN"
 "http://www.w3.org/TR/2001/REC-SVG-20010904/DTD/svg10.dtd">
<svg version="1.0" xmlns="http://www.w3.org/2000/svg"
 width="1600.000000pt" height="1600.000000pt" viewBox="0 0 1600.000000 1600.000000"
 preserveAspectRatio="xMidYMid meet">

<g transform="translate(0.000000,1600.000000) scale(0.100000,-0.100000)"
fill="#000000" stroke="none">
<path d="M7115 14989 c-208 -12 -554 -54 -780 -95 -1709 -311 -3229 -1306
-4217 -2759 -866 -1274 -1248 -2816 -1078 -4350 198 -1779 1123 -3395 2565
-4480 913 -686 1983 -1120 3095 -1254 316 -38 443 -46 800 -46 430 0 674 20
1075 86 1785 295 3394 1356 4386 2894 525 815 861 1731 983 2690 9 66 38 370
66 675 27 305 52 576 55 603 l6 47 -3036 0 -3035 0 0 -1000 0 -1000 1834 -2
1835 -3 -55 -140 c-63 -162 -204 -454 -294 -611 -377 -661 -936 -1236 -1583
-1627 -1157 -699 -2618 -810 -3917 -296 -166 66 -465 213 -622 307 -940 562
-1630 1421 -1972 2455 -94 283 -166 622 -203 949 -21 191 -24 702 -5 888 42
403 131 799 257 1139 439 1184 1322 2106 2484 2595 888 374 1937 447 2879 200
520 -136 1030 -373 1460 -681 150 -107 311 -236 412 -330 l60 -55 22 26 c13
13 318 340 678 726 360 385 656 705 658 710 4 11 -184 177 -365 323 -1251
1004 -2826 1505 -4448 1416z"/>
</g>
</svg>
